<?xml version="1.0" encoding="UTF-8"?>
<svg xmlns="http://www.w3.org/2000/svg" xmlns:xlink="http://www.w3.org/1999/xlink" width="68pt" height="68pt" viewBox="0 0 68 68" version="1.1">
<g id="surface42261">
<path style="fill:none;stroke-width:2;stroke-linecap:butt;stroke-linejoin:round;stroke:rgb(36.1%,24.7%,72.9%);stroke-opacity:1;stroke-miterlimit:10;" d="M 512 496 L 528 512 L 560 512 L 560 480 L 544 464 L 512 464 L 512 496 " transform="matrix(1,0,0,-1,-502,522)"/>
<path style="fill:none;stroke-width:2;stroke-linecap:butt;stroke-linejoin:round;stroke:rgb(36.1%,24.7%,72.9%);stroke-opacity:1;stroke-miterlimit:10;" d="M 512 464 L 528 480 L 528 512 " transform="matrix(1,0,0,-1,-502,522)"/>
<path style="fill:none;stroke-width:2;stroke-linecap:butt;stroke-linejoin:round;stroke:rgb(36.1%,24.7%,72.9%);stroke-opacity:1;stroke-miterlimit:10;" d="M 528 480 L 560 480 " transform="matrix(1,0,0,-1,-502,522)"/>
<path style="fill:none;stroke-width:2;stroke-linecap:butt;stroke-linejoin:round;stroke:rgb(36.1%,24.7%,72.9%);stroke-opacity:1;stroke-miterlimit:10;" d="M 544 496 L 512 496 " transform="matrix(1,0,0,-1,-502,522)"/>
<path style="fill:none;stroke-width:2;stroke-linecap:butt;stroke-linejoin:round;stroke:rgb(36.1%,24.7%,72.9%);stroke-opacity:1;stroke-miterlimit:10;" d="M 544 496 L 560 512 " transform="matrix(1,0,0,-1,-502,522)"/>
<path style="fill:none;stroke-width:2;stroke-linecap:butt;stroke-linejoin:round;stroke:rgb(36.1%,24.7%,72.9%);stroke-opacity:1;stroke-miterlimit:10;" d="M 544 464 L 544 496 " transform="matrix(1,0,0,-1,-502,522)"/>
<path style="fill-rule:evenodd;fill:rgb(41.2%,83.5%,79.6%);fill-opacity:1;stroke-width:2;stroke-linecap:butt;stroke-linejoin:round;stroke:rgb(36.1%,24.7%,72.9%);stroke-opacity:1;stroke-miterlimit:10;" d="M 536 512 C 536 516.417969 532.417969 520 528 520 C 523.582031 520 520 516.417969 520 512 C 520 507.582031 523.582031 504 528 504 C 532.417969 504 536 507.582031 536 512 Z M 536 512 " transform="matrix(1,0,0,-1,-502,522)"/>
<path style="fill-rule:evenodd;fill:rgb(41.2%,83.5%,79.6%);fill-opacity:1;stroke-width:2;stroke-linecap:butt;stroke-linejoin:round;stroke:rgb(36.1%,24.7%,72.9%);stroke-opacity:1;stroke-miterlimit:10;" d="M 536 480 C 536 484.417969 532.417969 488 528 488 C 523.582031 488 520 484.417969 520 480 C 520 475.582031 523.582031 472 528 472 C 532.417969 472 536 475.582031 536 480 Z M 536 480 " transform="matrix(1,0,0,-1,-502,522)"/>
<path style="fill-rule:evenodd;fill:rgb(41.2%,83.5%,79.6%);fill-opacity:1;stroke-width:2;stroke-linecap:butt;stroke-linejoin:round;stroke:rgb(36.1%,24.7%,72.9%);stroke-opacity:1;stroke-miterlimit:10;" d="M 568 480 C 568 484.417969 564.417969 488 560 488 C 555.582031 488 552 484.417969 552 480 C 552 475.582031 555.582031 472 560 472 C 564.417969 472 568 475.582031 568 480 Z M 568 480 " transform="matrix(1,0,0,-1,-502,522)"/>
<path style="fill-rule:evenodd;fill:rgb(41.2%,83.5%,79.6%);fill-opacity:1;stroke-width:2;stroke-linecap:butt;stroke-linejoin:round;stroke:rgb(36.1%,24.7%,72.9%);stroke-opacity:1;stroke-miterlimit:10;" d="M 568 512 C 568 516.417969 564.417969 520 560 520 C 555.582031 520 552 516.417969 552 512 C 552 507.582031 555.582031 504 560 504 C 564.417969 504 568 507.582031 568 512 Z M 568 512 " transform="matrix(1,0,0,-1,-502,522)"/>
<path style="fill-rule:evenodd;fill:rgb(41.2%,83.5%,79.6%);fill-opacity:1;stroke-width:2;stroke-linecap:butt;stroke-linejoin:round;stroke:rgb(36.1%,24.7%,72.9%);stroke-opacity:1;stroke-miterlimit:10;" d="M 520 496 C 520 500.417969 516.417969 504 512 504 C 507.582031 504 504 500.417969 504 496 C 504 491.582031 507.582031 488 512 488 C 516.417969 488 520 491.582031 520 496 Z M 520 496 " transform="matrix(1,0,0,-1,-502,522)"/>
<path style="fill-rule:evenodd;fill:rgb(41.2%,83.5%,79.6%);fill-opacity:1;stroke-width:2;stroke-linecap:butt;stroke-linejoin:round;stroke:rgb(36.1%,24.7%,72.9%);stroke-opacity:1;stroke-miterlimit:10;" d="M 520 464 C 520 468.417969 516.417969 472 512 472 C 507.582031 472 504 468.417969 504 464 C 504 459.582031 507.582031 456 512 456 C 516.417969 456 520 459.582031 520 464 Z M 520 464 " transform="matrix(1,0,0,-1,-502,522)"/>
<path style="fill-rule:evenodd;fill:rgb(41.2%,83.5%,79.6%);fill-opacity:1;stroke-width:2;stroke-linecap:butt;stroke-linejoin:round;stroke:rgb(36.1%,24.7%,72.9%);stroke-opacity:1;stroke-miterlimit:10;" d="M 552 464 C 552 468.417969 548.417969 472 544 472 C 539.582031 472 536 468.417969 536 464 C 536 459.582031 539.582031 456 544 456 C 548.417969 456 552 459.582031 552 464 Z M 552 464 " transform="matrix(1,0,0,-1,-502,522)"/>
<path style="fill-rule:evenodd;fill:rgb(41.2%,83.5%,79.6%);fill-opacity:1;stroke-width:2;stroke-linecap:butt;stroke-linejoin:round;stroke:rgb(36.1%,24.7%,72.9%);stroke-opacity:1;stroke-miterlimit:10;" d="M 552 496 C 552 500.417969 548.417969 504 544 504 C 539.582031 504 536 500.417969 536 496 C 536 491.582031 539.582031 488 544 488 C 548.417969 488 552 491.582031 552 496 Z M 552 496 " transform="matrix(1,0,0,-1,-502,522)"/>
<path style="fill-rule:evenodd;fill:rgb(63.1%,98.8%,51.8%);fill-opacity:1;stroke-width:1.2;stroke-linecap:butt;stroke-linejoin:round;stroke:rgb(36.1%,24.7%,72.9%);stroke-opacity:1;stroke-miterlimit:10;" d="M 534.839844 491.371094 C 534.839844 494.429688 530.257812 494.429688 530.257812 491.371094 C 530.257812 488.316406 534.839844 488.316406 534.839844 491.371094 Z M 534.839844 491.371094 " transform="matrix(1,0,0,-1,-502,522)"/>
</g>
</svg>
