<?xml version="1.0" encoding="UTF-8"?>
<svg xmlns="http://www.w3.org/2000/svg" xmlns:xlink="http://www.w3.org/1999/xlink" width="244pt" height="228pt" viewBox="0 0 244 228" version="1.1">
<g id="surface35891">
<path style="fill:none;stroke-width:2;stroke-linecap:butt;stroke-linejoin:round;stroke:rgb(0%,0%,0%);stroke-opacity:1;stroke-miterlimit:10;" d="M 256 336 L 256 432 " transform="matrix(1,0,0,-1,-230,522)"/>
<path style="fill-rule:evenodd;fill:rgb(17.3%,84.7%,80%);fill-opacity:1;stroke-width:2;stroke-linecap:butt;stroke-linejoin:round;stroke:rgb(0%,0%,0%);stroke-opacity:1;stroke-miterlimit:10;" d="M 269.046875 329.261719 L 307.363281 358.324219 " transform="matrix(1,0,0,-1,-230,522)"/>
<path style="fill:none;stroke-width:2;stroke-linecap:butt;stroke-linejoin:round;stroke:rgb(0%,0%,0%);stroke-opacity:1;stroke-miterlimit:10;" d="M 272 448 L 368 448 " transform="matrix(1,0,0,-1,-230,522)"/>
<path style="fill:none;stroke-width:2;stroke-linecap:butt;stroke-linejoin:round;stroke:rgb(0%,0%,0%);stroke-opacity:1;stroke-miterlimit:10;" d="M 336 496 L 432 496 " transform="matrix(1,0,0,-1,-230,522)"/>
<path style="fill-rule:evenodd;fill:rgb(17.3%,84.7%,80%);fill-opacity:1;stroke-width:2;stroke-linecap:butt;stroke-linejoin:round;stroke:rgb(0%,0%,0%);stroke-opacity:1;stroke-miterlimit:10;" d="M 396.816406 329.441406 L 435.265625 358.425781 " transform="matrix(1,0,0,-1,-230,522)"/>
<path style="fill:none;stroke-width:2;stroke-linecap:butt;stroke-linejoin:round;stroke:rgb(0%,0%,0%);stroke-opacity:1;stroke-miterlimit:10;" d="M 384 432 L 384 336 " transform="matrix(1,0,0,-1,-230,522)"/>
<path style="fill:none;stroke-width:2;stroke-linecap:butt;stroke-linejoin:round;stroke:rgb(0%,0%,0%);stroke-opacity:1;stroke-miterlimit:10;" d="M 368 320 L 272 320 " transform="matrix(1,0,0,-1,-230,522)"/>
<path style="fill:none;stroke-width:2;stroke-linecap:butt;stroke-linejoin:round;stroke:rgb(0%,0%,0%);stroke-opacity:1;stroke-miterlimit:10;" d="M 448 480 L 448 384 " transform="matrix(1,0,0,-1,-230,522)"/>
<path style="fill:none;stroke-width:2;stroke-linecap:butt;stroke-linejoin:round;stroke:rgb(0%,0%,0%);stroke-opacity:1;stroke-miterlimit:10;" d="M 320 384 L 320 480 " transform="matrix(1,0,0,-1,-230,522)"/>
<path style="fill:none;stroke-width:2;stroke-linecap:butt;stroke-linejoin:round;stroke:rgb(0%,0%,0%);stroke-opacity:1;stroke-miterlimit:10;" d="M 336 368 L 432 368 " transform="matrix(1,0,0,-1,-230,522)"/>
<path style="fill-rule:evenodd;fill:rgb(17.3%,84.7%,80%);fill-opacity:1;stroke-width:2;stroke-linecap:butt;stroke-linejoin:round;stroke:rgb(0%,0%,0%);stroke-opacity:1;stroke-miterlimit:10;" d="M 269.046875 457.261719 L 307.363281 486.324219 " transform="matrix(1,0,0,-1,-230,522)"/>
<path style="fill-rule:evenodd;fill:rgb(17.3%,84.7%,80%);fill-opacity:1;stroke-width:2;stroke-linecap:butt;stroke-linejoin:round;stroke:rgb(0%,0%,0%);stroke-opacity:1;stroke-miterlimit:10;" d="M 396.816406 457.441406 L 435.265625 486.425781 " transform="matrix(1,0,0,-1,-230,522)"/>
<path style="fill-rule:evenodd;fill:rgb(50.2%,100%,44.7%);fill-opacity:1;stroke-width:2;stroke-linecap:butt;stroke-linejoin:round;stroke:rgb(0%,0%,0%);stroke-opacity:1;stroke-miterlimit:10;" d="M 368 404 C 368 412.835938 360.835938 420 352 420 C 343.164062 420 336 412.835938 336 404 C 336 395.164062 343.164062 388 352 388 C 360.835938 388 368 395.164062 368 404 Z M 368 404 " transform="matrix(1,0,0,-1,-230,522)"/>
<path style="fill-rule:evenodd;fill:rgb(17.2%,84.6%,79.8%);fill-opacity:1;stroke-width:2;stroke-linecap:butt;stroke-linejoin:round;stroke:rgb(0%,0%,0%);stroke-opacity:1;stroke-miterlimit:10;" d="M 280 320 C 280 333.253906 269.253906 344 256 344 C 242.746094 344 232 333.253906 232 320 C 232 306.746094 242.746094 296 256 296 C 269.253906 296 280 306.746094 280 320 Z M 280 320 " transform="matrix(1,0,0,-1,-230,522)"/>
<path style="fill-rule:evenodd;fill:rgb(17.2%,84.6%,79.8%);fill-opacity:1;stroke-width:2;stroke-linecap:butt;stroke-linejoin:round;stroke:rgb(0%,0%,0%);stroke-opacity:1;stroke-miterlimit:10;" d="M 344 368 C 344 381.253906 333.253906 392 320 392 C 306.746094 392 296 381.253906 296 368 C 296 354.746094 306.746094 344 320 344 C 333.253906 344 344 354.746094 344 368 Z M 344 368 " transform="matrix(1,0,0,-1,-230,522)"/>
<path style="fill-rule:evenodd;fill:rgb(17.2%,84.6%,79.8%);fill-opacity:1;stroke-width:2;stroke-linecap:butt;stroke-linejoin:round;stroke:rgb(0%,0%,0%);stroke-opacity:1;stroke-miterlimit:10;" d="M 280 448 C 280 461.253906 269.253906 472 256 472 C 242.746094 472 232 461.253906 232 448 C 232 434.746094 242.746094 424 256 424 C 269.253906 424 280 434.746094 280 448 Z M 280 448 " transform="matrix(1,0,0,-1,-230,522)"/>
<path style="fill-rule:evenodd;fill:rgb(17.2%,84.6%,79.8%);fill-opacity:1;stroke-width:2;stroke-linecap:butt;stroke-linejoin:round;stroke:rgb(0%,0%,0%);stroke-opacity:1;stroke-miterlimit:10;" d="M 472 496 C 472 509.253906 461.253906 520 448 520 C 434.746094 520 424 509.253906 424 496 C 424 482.746094 434.746094 472 448 472 C 461.253906 472 472 482.746094 472 496 Z M 472 496 " transform="matrix(1,0,0,-1,-230,522)"/>
<path style="fill-rule:evenodd;fill:rgb(17.2%,84.6%,79.8%);fill-opacity:1;stroke-width:2;stroke-linecap:butt;stroke-linejoin:round;stroke:rgb(0%,0%,0%);stroke-opacity:1;stroke-miterlimit:10;" d="M 408 448 C 408 461.253906 397.253906 472 384 472 C 370.746094 472 360 461.253906 360 448 C 360 434.746094 370.746094 424 384 424 C 397.253906 424 408 434.746094 408 448 Z M 408 448 " transform="matrix(1,0,0,-1,-230,522)"/>
<path style="fill-rule:evenodd;fill:rgb(17.2%,84.6%,79.8%);fill-opacity:1;stroke-width:2;stroke-linecap:butt;stroke-linejoin:round;stroke:rgb(0%,0%,0%);stroke-opacity:1;stroke-miterlimit:10;" d="M 472 368 C 472 381.253906 461.253906 392 448 392 C 434.746094 392 424 381.253906 424 368 C 424 354.746094 434.746094 344 448 344 C 461.253906 344 472 354.746094 472 368 Z M 472 368 " transform="matrix(1,0,0,-1,-230,522)"/>
<path style="fill-rule:evenodd;fill:rgb(17.2%,84.6%,79.8%);fill-opacity:1;stroke-width:2;stroke-linecap:butt;stroke-linejoin:round;stroke:rgb(0%,0%,0%);stroke-opacity:1;stroke-miterlimit:10;" d="M 408 320 C 408 333.253906 397.253906 344 384 344 C 370.746094 344 360 333.253906 360 320 C 360 306.746094 370.746094 296 384 296 C 397.253906 296 408 306.746094 408 320 Z M 408 320 " transform="matrix(1,0,0,-1,-230,522)"/>
<path style="fill-rule:evenodd;fill:rgb(17.2%,84.6%,79.8%);fill-opacity:1;stroke-width:2;stroke-linecap:butt;stroke-linejoin:round;stroke:rgb(0%,0%,0%);stroke-opacity:1;stroke-miterlimit:10;" d="M 344 496 C 344 509.253906 333.253906 520 320 520 C 306.746094 520 296 509.253906 296 496 C 296 482.746094 306.746094 472 320 472 C 333.253906 472 344 482.746094 344 496 Z M 344 496 " transform="matrix(1,0,0,-1,-230,522)"/>
</g>
</svg>
