<?xml version="1.0" encoding="UTF-8"?>
<svg xmlns="http://www.w3.org/2000/svg" xmlns:xlink="http://www.w3.org/1999/xlink" width="80pt" height="80pt" viewBox="0 0 80 80" version="1.1">
<g id="surface44288">
<path style="fill-rule:evenodd;fill:rgb(63.1%,98.8%,51.8%);fill-opacity:1;stroke-width:1.2;stroke-linecap:butt;stroke-linejoin:round;stroke:rgb(36.1%,24.7%,72.9%);stroke-opacity:1;stroke-miterlimit:10;" d="M 524.292969 465.953125 C 524.292969 469.011719 519.710938 469.011719 519.710938 465.953125 C 519.710938 462.898438 524.292969 462.898438 524.292969 465.953125 Z M 524.292969 465.953125 " transform="matrix(1,0,0,-1,-482,506)"/>
<path style="fill:none;stroke-width:1.2;stroke-linecap:butt;stroke-linejoin:round;stroke:rgb(36.1%,24.7%,72.9%);stroke-opacity:1;stroke-miterlimit:10;" d="M 492 436 L 492 476 L 512 496 L 552 496 L 552 456 L 532 436 L 492 436 L 512 456 L 512 496 L 552 496 L 532 476 L 492 476 L 492 436 L 532 436 L 532 476 L 532 436 L 552 456 L 512 456 " transform="matrix(1,0,0,-1,-482,506)"/>
<path style="fill-rule:evenodd;fill:rgb(41.2%,83.5%,79.6%);fill-opacity:1;stroke-width:2;stroke-linecap:butt;stroke-linejoin:round;stroke:rgb(36.1%,24.7%,72.9%);stroke-opacity:1;stroke-miterlimit:10;" d="M 520 496 C 520 500.417969 516.417969 504 512 504 C 507.582031 504 504 500.417969 504 496 C 504 491.582031 507.582031 488 512 488 C 516.417969 488 520 491.582031 520 496 Z M 520 496 " transform="matrix(1,0,0,-1,-482,506)"/>
<path style="fill-rule:evenodd;fill:rgb(41.2%,83.5%,79.6%);fill-opacity:1;stroke-width:2;stroke-linecap:butt;stroke-linejoin:round;stroke:rgb(36.1%,24.7%,72.9%);stroke-opacity:1;stroke-miterlimit:10;" d="M 520 456 C 520 460.417969 516.417969 464 512 464 C 507.582031 464 504 460.417969 504 456 C 504 451.582031 507.582031 448 512 448 C 516.417969 448 520 451.582031 520 456 Z M 520 456 " transform="matrix(1,0,0,-1,-482,506)"/>
<path style="fill-rule:evenodd;fill:rgb(41.2%,83.5%,79.6%);fill-opacity:1;stroke-width:2;stroke-linecap:butt;stroke-linejoin:round;stroke:rgb(36.1%,24.7%,72.9%);stroke-opacity:1;stroke-miterlimit:10;" d="M 560 456 C 560 460.417969 556.417969 464 552 464 C 547.582031 464 544 460.417969 544 456 C 544 451.582031 547.582031 448 552 448 C 556.417969 448 560 451.582031 560 456 Z M 560 456 " transform="matrix(1,0,0,-1,-482,506)"/>
<path style="fill-rule:evenodd;fill:rgb(41.2%,83.5%,79.6%);fill-opacity:1;stroke-width:2;stroke-linecap:butt;stroke-linejoin:round;stroke:rgb(36.1%,24.7%,72.9%);stroke-opacity:1;stroke-miterlimit:10;" d="M 560 496 C 560 500.417969 556.417969 504 552 504 C 547.582031 504 544 500.417969 544 496 C 544 491.582031 547.582031 488 552 488 C 556.417969 488 560 491.582031 560 496 Z M 560 496 " transform="matrix(1,0,0,-1,-482,506)"/>
<path style="fill-rule:evenodd;fill:rgb(41.2%,83.5%,79.6%);fill-opacity:1;stroke-width:2;stroke-linecap:butt;stroke-linejoin:round;stroke:rgb(36.1%,24.7%,72.9%);stroke-opacity:1;stroke-miterlimit:10;" d="M 500 476 C 500 480.417969 496.417969 484 492 484 C 487.582031 484 484 480.417969 484 476 C 484 471.582031 487.582031 468 492 468 C 496.417969 468 500 471.582031 500 476 Z M 500 476 " transform="matrix(1,0,0,-1,-482,506)"/>
<path style="fill-rule:evenodd;fill:rgb(41.2%,83.5%,79.6%);fill-opacity:1;stroke-width:2;stroke-linecap:butt;stroke-linejoin:round;stroke:rgb(36.1%,24.7%,72.9%);stroke-opacity:1;stroke-miterlimit:10;" d="M 500 436 C 500 440.417969 496.417969 444 492 444 C 487.582031 444 484 440.417969 484 436 C 484 431.582031 487.582031 428 492 428 C 496.417969 428 500 431.582031 500 436 Z M 500 436 " transform="matrix(1,0,0,-1,-482,506)"/>
<path style="fill-rule:evenodd;fill:rgb(41.2%,83.5%,79.6%);fill-opacity:1;stroke-width:2;stroke-linecap:butt;stroke-linejoin:round;stroke:rgb(36.1%,24.7%,72.9%);stroke-opacity:1;stroke-miterlimit:10;" d="M 540 436 C 540 440.417969 536.417969 444 532 444 C 527.582031 444 524 440.417969 524 436 C 524 431.582031 527.582031 428 532 428 C 536.417969 428 540 431.582031 540 436 Z M 540 436 " transform="matrix(1,0,0,-1,-482,506)"/>
<path style="fill-rule:evenodd;fill:rgb(41.2%,83.5%,79.6%);fill-opacity:1;stroke-width:2;stroke-linecap:butt;stroke-linejoin:round;stroke:rgb(36.1%,24.7%,72.9%);stroke-opacity:1;stroke-miterlimit:10;" d="M 540 476 C 540 480.417969 536.417969 484 532 484 C 527.582031 484 524 480.417969 524 476 C 524 471.582031 527.582031 468 532 468 C 536.417969 468 540 471.582031 540 476 Z M 540 476 " transform="matrix(1,0,0,-1,-482,506)"/>
</g>
</svg>
