<?xml version="1.0" encoding="UTF-8"?>
<svg xmlns="http://www.w3.org/2000/svg" xmlns:xlink="http://www.w3.org/1999/xlink" width="212pt" height="220pt" viewBox="0 0 212 220" version="1.1">
<g id="surface60545">
<path style="fill:none;stroke-width:1.2;stroke-linecap:butt;stroke-linejoin:round;stroke:rgb(23.9%,16.9%,23.9%);stroke-opacity:1;stroke-miterlimit:10;" d="M 480 424 L 480 480 L 504 512 L 560 512 L 560 456 L 536 424 L 480 424 L 504 456 L 560 456 L 536 424 L 536 480 L 480 480 L 480 424 L 504 456 L 504 512 L 560 512 L 536 480 " transform="matrix(1,0,0,-1,-358,634)"/>
<path style="fill-rule:evenodd;fill:rgb(41.2%,83.5%,79.6%);fill-opacity:1;stroke-width:2;stroke-linecap:butt;stroke-linejoin:round;stroke:rgb(23.9%,16.9%,23.9%);stroke-opacity:1;stroke-miterlimit:10;" d="M 512 512 C 512 516.417969 508.417969 520 504 520 C 499.582031 520 496 516.417969 496 512 C 496 507.582031 499.582031 504 504 504 C 508.417969 504 512 507.582031 512 512 Z M 512 512 " transform="matrix(1,0,0,-1,-358,634)"/>
<path style="fill-rule:evenodd;fill:rgb(41.2%,83.5%,79.6%);fill-opacity:1;stroke-width:2;stroke-linecap:butt;stroke-linejoin:round;stroke:rgb(23.9%,16.9%,23.9%);stroke-opacity:1;stroke-miterlimit:10;" d="M 512 456 C 512 460.417969 508.417969 464 504 464 C 499.582031 464 496 460.417969 496 456 C 496 451.582031 499.582031 448 504 448 C 508.417969 448 512 451.582031 512 456 Z M 512 456 " transform="matrix(1,0,0,-1,-358,634)"/>
<path style="fill-rule:evenodd;fill:rgb(41.2%,83.5%,79.6%);fill-opacity:1;stroke-width:2;stroke-linecap:butt;stroke-linejoin:round;stroke:rgb(23.9%,16.9%,23.9%);stroke-opacity:1;stroke-miterlimit:10;" d="M 528 468 C 528 472.417969 524.417969 476 520 476 C 515.582031 476 512 472.417969 512 468 C 512 463.582031 515.582031 460 520 460 C 524.417969 460 528 463.582031 528 468 Z M 528 468 " transform="matrix(1,0,0,-1,-358,634)"/>
<path style="fill-rule:evenodd;fill:rgb(41.2%,83.5%,79.6%);fill-opacity:1;stroke-width:2;stroke-linecap:butt;stroke-linejoin:round;stroke:rgb(23.9%,16.9%,23.9%);stroke-opacity:1;stroke-miterlimit:10;" d="M 488 424 C 488 428.417969 484.417969 432 480 432 C 475.582031 432 472 428.417969 472 424 C 472 419.582031 475.582031 416 480 416 C 484.417969 416 488 419.582031 488 424 Z M 488 424 " transform="matrix(1,0,0,-1,-358,634)"/>
<path style="fill-rule:evenodd;fill:rgb(41.2%,83.5%,79.6%);fill-opacity:1;stroke-width:2;stroke-linecap:butt;stroke-linejoin:round;stroke:rgb(23.9%,16.9%,23.9%);stroke-opacity:1;stroke-miterlimit:10;" d="M 544 424 C 544 428.417969 540.417969 432 536 432 C 531.582031 432 528 428.417969 528 424 C 528 419.582031 531.582031 416 536 416 C 540.417969 416 544 419.582031 544 424 Z M 544 424 " transform="matrix(1,0,0,-1,-358,634)"/>
<path style="fill-rule:evenodd;fill:rgb(41.2%,83.5%,79.6%);fill-opacity:1;stroke-width:2;stroke-linecap:butt;stroke-linejoin:round;stroke:rgb(23.9%,16.9%,23.9%);stroke-opacity:1;stroke-miterlimit:10;" d="M 568 456 C 568 460.417969 564.417969 464 560 464 C 555.582031 464 552 460.417969 552 456 C 552 451.582031 555.582031 448 560 448 C 564.417969 448 568 451.582031 568 456 Z M 568 456 " transform="matrix(1,0,0,-1,-358,634)"/>
<path style="fill-rule:evenodd;fill:rgb(41.2%,83.5%,79.6%);fill-opacity:1;stroke-width:2;stroke-linecap:butt;stroke-linejoin:round;stroke:rgb(23.9%,16.9%,23.9%);stroke-opacity:1;stroke-miterlimit:10;" d="M 488 480 C 488 484.417969 484.417969 488 480 488 C 475.582031 488 472 484.417969 472 480 C 472 475.582031 475.582031 472 480 472 C 484.417969 472 488 475.582031 488 480 Z M 488 480 " transform="matrix(1,0,0,-1,-358,634)"/>
<path style="fill-rule:evenodd;fill:rgb(41.2%,83.5%,79.6%);fill-opacity:1;stroke-width:2;stroke-linecap:butt;stroke-linejoin:round;stroke:rgb(23.9%,16.9%,23.9%);stroke-opacity:1;stroke-miterlimit:10;" d="M 568 512 C 568 516.417969 564.417969 520 560 520 C 555.582031 520 552 516.417969 552 512 C 552 507.582031 555.582031 504 560 504 C 564.417969 504 568 507.582031 568 512 Z M 568 512 " transform="matrix(1,0,0,-1,-358,634)"/>
<path style="fill-rule:evenodd;fill:rgb(41.2%,83.5%,79.6%);fill-opacity:1;stroke-width:2;stroke-linecap:butt;stroke-linejoin:round;stroke:rgb(23.9%,16.9%,23.9%);stroke-opacity:1;stroke-miterlimit:10;" d="M 544 480 C 544 484.417969 540.417969 488 536 488 C 531.582031 488 528 484.417969 528 480 C 528 475.582031 531.582031 472 536 472 C 540.417969 472 544 475.582031 544 480 Z M 544 480 " transform="matrix(1,0,0,-1,-358,634)"/>
<path style="fill:none;stroke-width:1.2;stroke-linecap:butt;stroke-linejoin:round;stroke:rgb(23.9%,16.9%,23.9%);stroke-opacity:1;stroke-miterlimit:10;" d="M 424 424 L 424 480 L 448 512 L 504 512 L 504 456 L 480 424 L 424 424 L 448 456 L 504 456 L 480 424 L 480 480 L 424 480 L 424 424 L 448 456 L 448 512 L 504 512 L 480 480 " transform="matrix(1,0,0,-1,-358,634)"/>
<path style="fill-rule:evenodd;fill:rgb(41.2%,83.5%,79.6%);fill-opacity:1;stroke-width:2;stroke-linecap:butt;stroke-linejoin:round;stroke:rgb(23.9%,16.9%,23.9%);stroke-opacity:1;stroke-miterlimit:10;" d="M 456 512 C 456 516.417969 452.417969 520 448 520 C 443.582031 520 440 516.417969 440 512 C 440 507.582031 443.582031 504 448 504 C 452.417969 504 456 507.582031 456 512 Z M 456 512 " transform="matrix(1,0,0,-1,-358,634)"/>
<path style="fill-rule:evenodd;fill:rgb(41.2%,83.5%,79.6%);fill-opacity:1;stroke-width:2;stroke-linecap:butt;stroke-linejoin:round;stroke:rgb(23.9%,16.9%,23.9%);stroke-opacity:1;stroke-miterlimit:10;" d="M 456 456 C 456 460.417969 452.417969 464 448 464 C 443.582031 464 440 460.417969 440 456 C 440 451.582031 443.582031 448 448 448 C 452.417969 448 456 451.582031 456 456 Z M 456 456 " transform="matrix(1,0,0,-1,-358,634)"/>
<path style="fill-rule:evenodd;fill:rgb(41.2%,83.5%,79.6%);fill-opacity:1;stroke-width:2;stroke-linecap:butt;stroke-linejoin:round;stroke:rgb(23.9%,16.9%,23.9%);stroke-opacity:1;stroke-miterlimit:10;" d="M 472 468 C 472 472.417969 468.417969 476 464 476 C 459.582031 476 456 472.417969 456 468 C 456 463.582031 459.582031 460 464 460 C 468.417969 460 472 463.582031 472 468 Z M 472 468 " transform="matrix(1,0,0,-1,-358,634)"/>
<path style="fill-rule:evenodd;fill:rgb(41.2%,83.5%,79.6%);fill-opacity:1;stroke-width:2;stroke-linecap:butt;stroke-linejoin:round;stroke:rgb(23.9%,16.9%,23.9%);stroke-opacity:1;stroke-miterlimit:10;" d="M 432 424 C 432 428.417969 428.417969 432 424 432 C 419.582031 432 416 428.417969 416 424 C 416 419.582031 419.582031 416 424 416 C 428.417969 416 432 419.582031 432 424 Z M 432 424 " transform="matrix(1,0,0,-1,-358,634)"/>
<path style="fill-rule:evenodd;fill:rgb(41.2%,83.5%,79.6%);fill-opacity:1;stroke-width:2;stroke-linecap:butt;stroke-linejoin:round;stroke:rgb(23.9%,16.9%,23.9%);stroke-opacity:1;stroke-miterlimit:10;" d="M 488 424 C 488 428.417969 484.417969 432 480 432 C 475.582031 432 472 428.417969 472 424 C 472 419.582031 475.582031 416 480 416 C 484.417969 416 488 419.582031 488 424 Z M 488 424 " transform="matrix(1,0,0,-1,-358,634)"/>
<path style="fill-rule:evenodd;fill:rgb(41.2%,83.5%,79.6%);fill-opacity:1;stroke-width:2;stroke-linecap:butt;stroke-linejoin:round;stroke:rgb(23.9%,16.9%,23.9%);stroke-opacity:1;stroke-miterlimit:10;" d="M 512 456 C 512 460.417969 508.417969 464 504 464 C 499.582031 464 496 460.417969 496 456 C 496 451.582031 499.582031 448 504 448 C 508.417969 448 512 451.582031 512 456 Z M 512 456 " transform="matrix(1,0,0,-1,-358,634)"/>
<path style="fill-rule:evenodd;fill:rgb(41.2%,83.5%,79.6%);fill-opacity:1;stroke-width:2;stroke-linecap:butt;stroke-linejoin:round;stroke:rgb(23.9%,16.9%,23.9%);stroke-opacity:1;stroke-miterlimit:10;" d="M 432 480 C 432 484.417969 428.417969 488 424 488 C 419.582031 488 416 484.417969 416 480 C 416 475.582031 419.582031 472 424 472 C 428.417969 472 432 475.582031 432 480 Z M 432 480 " transform="matrix(1,0,0,-1,-358,634)"/>
<path style="fill-rule:evenodd;fill:rgb(41.2%,83.5%,79.6%);fill-opacity:1;stroke-width:2;stroke-linecap:butt;stroke-linejoin:round;stroke:rgb(23.9%,16.9%,23.9%);stroke-opacity:1;stroke-miterlimit:10;" d="M 512 512 C 512 516.417969 508.417969 520 504 520 C 499.582031 520 496 516.417969 496 512 C 496 507.582031 499.582031 504 504 504 C 508.417969 504 512 507.582031 512 512 Z M 512 512 " transform="matrix(1,0,0,-1,-358,634)"/>
<path style="fill-rule:evenodd;fill:rgb(41.2%,83.5%,79.6%);fill-opacity:1;stroke-width:2;stroke-linecap:butt;stroke-linejoin:round;stroke:rgb(23.9%,16.9%,23.9%);stroke-opacity:1;stroke-miterlimit:10;" d="M 488 480 C 488 484.417969 484.417969 488 480 488 C 475.582031 488 472 484.417969 472 480 C 472 475.582031 475.582031 472 480 472 C 484.417969 472 488 475.582031 488 480 Z M 488 480 " transform="matrix(1,0,0,-1,-358,634)"/>
<path style="fill:none;stroke-width:1.2;stroke-linecap:butt;stroke-linejoin:round;stroke:rgb(23.9%,16.9%,23.9%);stroke-opacity:1;stroke-miterlimit:10;" d="M 368 424 L 368 480 L 392 512 L 448 512 L 448 456 L 424 424 L 368 424 L 392 456 L 448 456 L 424 424 L 424 480 L 368 480 L 368 424 L 392 456 L 392 512 L 448 512 L 424 480 " transform="matrix(1,0,0,-1,-358,634)"/>
<path style="fill-rule:evenodd;fill:rgb(41.2%,83.5%,79.6%);fill-opacity:1;stroke-width:2;stroke-linecap:butt;stroke-linejoin:round;stroke:rgb(23.9%,16.9%,23.9%);stroke-opacity:1;stroke-miterlimit:10;" d="M 400 512 C 400 516.417969 396.417969 520 392 520 C 387.582031 520 384 516.417969 384 512 C 384 507.582031 387.582031 504 392 504 C 396.417969 504 400 507.582031 400 512 Z M 400 512 " transform="matrix(1,0,0,-1,-358,634)"/>
<path style="fill-rule:evenodd;fill:rgb(41.2%,83.5%,79.6%);fill-opacity:1;stroke-width:2;stroke-linecap:butt;stroke-linejoin:round;stroke:rgb(23.9%,16.9%,23.9%);stroke-opacity:1;stroke-miterlimit:10;" d="M 400 456 C 400 460.417969 396.417969 464 392 464 C 387.582031 464 384 460.417969 384 456 C 384 451.582031 387.582031 448 392 448 C 396.417969 448 400 451.582031 400 456 Z M 400 456 " transform="matrix(1,0,0,-1,-358,634)"/>
<path style="fill-rule:evenodd;fill:rgb(41.2%,83.5%,79.6%);fill-opacity:1;stroke-width:2;stroke-linecap:butt;stroke-linejoin:round;stroke:rgb(23.9%,16.9%,23.9%);stroke-opacity:1;stroke-miterlimit:10;" d="M 416 468 C 416 472.417969 412.417969 476 408 476 C 403.582031 476 400 472.417969 400 468 C 400 463.582031 403.582031 460 408 460 C 412.417969 460 416 463.582031 416 468 Z M 416 468 " transform="matrix(1,0,0,-1,-358,634)"/>
<path style="fill-rule:evenodd;fill:rgb(41.2%,83.5%,79.6%);fill-opacity:1;stroke-width:2;stroke-linecap:butt;stroke-linejoin:round;stroke:rgb(23.9%,16.9%,23.9%);stroke-opacity:1;stroke-miterlimit:10;" d="M 376 424 C 376 428.417969 372.417969 432 368 432 C 363.582031 432 360 428.417969 360 424 C 360 419.582031 363.582031 416 368 416 C 372.417969 416 376 419.582031 376 424 Z M 376 424 " transform="matrix(1,0,0,-1,-358,634)"/>
<path style="fill-rule:evenodd;fill:rgb(41.2%,83.5%,79.6%);fill-opacity:1;stroke-width:2;stroke-linecap:butt;stroke-linejoin:round;stroke:rgb(23.9%,16.9%,23.9%);stroke-opacity:1;stroke-miterlimit:10;" d="M 432 424 C 432 428.417969 428.417969 432 424 432 C 419.582031 432 416 428.417969 416 424 C 416 419.582031 419.582031 416 424 416 C 428.417969 416 432 419.582031 432 424 Z M 432 424 " transform="matrix(1,0,0,-1,-358,634)"/>
<path style="fill-rule:evenodd;fill:rgb(41.2%,83.5%,79.6%);fill-opacity:1;stroke-width:2;stroke-linecap:butt;stroke-linejoin:round;stroke:rgb(23.9%,16.9%,23.9%);stroke-opacity:1;stroke-miterlimit:10;" d="M 456 456 C 456 460.417969 452.417969 464 448 464 C 443.582031 464 440 460.417969 440 456 C 440 451.582031 443.582031 448 448 448 C 452.417969 448 456 451.582031 456 456 Z M 456 456 " transform="matrix(1,0,0,-1,-358,634)"/>
<path style="fill-rule:evenodd;fill:rgb(41.2%,83.5%,79.6%);fill-opacity:1;stroke-width:2;stroke-linecap:butt;stroke-linejoin:round;stroke:rgb(23.9%,16.9%,23.9%);stroke-opacity:1;stroke-miterlimit:10;" d="M 376 480 C 376 484.417969 372.417969 488 368 488 C 363.582031 488 360 484.417969 360 480 C 360 475.582031 363.582031 472 368 472 C 372.417969 472 376 475.582031 376 480 Z M 376 480 " transform="matrix(1,0,0,-1,-358,634)"/>
<path style="fill-rule:evenodd;fill:rgb(41.2%,83.5%,79.6%);fill-opacity:1;stroke-width:2;stroke-linecap:butt;stroke-linejoin:round;stroke:rgb(23.9%,16.9%,23.9%);stroke-opacity:1;stroke-miterlimit:10;" d="M 456 512 C 456 516.417969 452.417969 520 448 520 C 443.582031 520 440 516.417969 440 512 C 440 507.582031 443.582031 504 448 504 C 452.417969 504 456 507.582031 456 512 Z M 456 512 " transform="matrix(1,0,0,-1,-358,634)"/>
<path style="fill-rule:evenodd;fill:rgb(41.2%,83.5%,79.6%);fill-opacity:1;stroke-width:2;stroke-linecap:butt;stroke-linejoin:round;stroke:rgb(23.9%,16.9%,23.9%);stroke-opacity:1;stroke-miterlimit:10;" d="M 432 480 C 432 484.417969 428.417969 488 424 488 C 419.582031 488 416 484.417969 416 480 C 416 475.582031 419.582031 472 424 472 C 428.417969 472 432 475.582031 432 480 Z M 432 480 " transform="matrix(1,0,0,-1,-358,634)"/>
<path style="fill:none;stroke-width:1.2;stroke-linecap:butt;stroke-linejoin:round;stroke:rgb(23.9%,16.9%,23.9%);stroke-opacity:1;stroke-miterlimit:10;" d="M 480 480 L 480 536 L 504 568 L 560 568 L 560 512 L 536 480 L 480 480 L 504 512 L 560 512 L 536 480 L 536 536 L 480 536 L 480 480 L 504 512 L 504 568 L 560 568 L 536 536 " transform="matrix(1,0,0,-1,-358,634)"/>
<path style="fill-rule:evenodd;fill:rgb(41.2%,83.5%,79.6%);fill-opacity:1;stroke-width:2;stroke-linecap:butt;stroke-linejoin:round;stroke:rgb(23.9%,16.9%,23.9%);stroke-opacity:1;stroke-miterlimit:10;" d="M 512 568 C 512 572.417969 508.417969 576 504 576 C 499.582031 576 496 572.417969 496 568 C 496 563.582031 499.582031 560 504 560 C 508.417969 560 512 563.582031 512 568 Z M 512 568 " transform="matrix(1,0,0,-1,-358,634)"/>
<path style="fill-rule:evenodd;fill:rgb(41.2%,83.5%,79.6%);fill-opacity:1;stroke-width:2;stroke-linecap:butt;stroke-linejoin:round;stroke:rgb(23.9%,16.9%,23.9%);stroke-opacity:1;stroke-miterlimit:10;" d="M 512 512 C 512 516.417969 508.417969 520 504 520 C 499.582031 520 496 516.417969 496 512 C 496 507.582031 499.582031 504 504 504 C 508.417969 504 512 507.582031 512 512 Z M 512 512 " transform="matrix(1,0,0,-1,-358,634)"/>
<path style="fill-rule:evenodd;fill:rgb(41.2%,83.5%,79.6%);fill-opacity:1;stroke-width:2;stroke-linecap:butt;stroke-linejoin:round;stroke:rgb(23.9%,16.9%,23.9%);stroke-opacity:1;stroke-miterlimit:10;" d="M 528 524 C 528 528.417969 524.417969 532 520 532 C 515.582031 532 512 528.417969 512 524 C 512 519.582031 515.582031 516 520 516 C 524.417969 516 528 519.582031 528 524 Z M 528 524 " transform="matrix(1,0,0,-1,-358,634)"/>
<path style="fill-rule:evenodd;fill:rgb(41.2%,83.5%,79.6%);fill-opacity:1;stroke-width:2;stroke-linecap:butt;stroke-linejoin:round;stroke:rgb(23.9%,16.9%,23.9%);stroke-opacity:1;stroke-miterlimit:10;" d="M 488 480 C 488 484.417969 484.417969 488 480 488 C 475.582031 488 472 484.417969 472 480 C 472 475.582031 475.582031 472 480 472 C 484.417969 472 488 475.582031 488 480 Z M 488 480 " transform="matrix(1,0,0,-1,-358,634)"/>
<path style="fill-rule:evenodd;fill:rgb(41.2%,83.5%,79.6%);fill-opacity:1;stroke-width:2;stroke-linecap:butt;stroke-linejoin:round;stroke:rgb(23.9%,16.9%,23.9%);stroke-opacity:1;stroke-miterlimit:10;" d="M 544 480 C 544 484.417969 540.417969 488 536 488 C 531.582031 488 528 484.417969 528 480 C 528 475.582031 531.582031 472 536 472 C 540.417969 472 544 475.582031 544 480 Z M 544 480 " transform="matrix(1,0,0,-1,-358,634)"/>
<path style="fill-rule:evenodd;fill:rgb(41.2%,83.5%,79.6%);fill-opacity:1;stroke-width:2;stroke-linecap:butt;stroke-linejoin:round;stroke:rgb(23.9%,16.9%,23.9%);stroke-opacity:1;stroke-miterlimit:10;" d="M 568 512 C 568 516.417969 564.417969 520 560 520 C 555.582031 520 552 516.417969 552 512 C 552 507.582031 555.582031 504 560 504 C 564.417969 504 568 507.582031 568 512 Z M 568 512 " transform="matrix(1,0,0,-1,-358,634)"/>
<path style="fill-rule:evenodd;fill:rgb(41.2%,83.5%,79.6%);fill-opacity:1;stroke-width:2;stroke-linecap:butt;stroke-linejoin:round;stroke:rgb(23.9%,16.9%,23.9%);stroke-opacity:1;stroke-miterlimit:10;" d="M 488 536 C 488 540.417969 484.417969 544 480 544 C 475.582031 544 472 540.417969 472 536 C 472 531.582031 475.582031 528 480 528 C 484.417969 528 488 531.582031 488 536 Z M 488 536 " transform="matrix(1,0,0,-1,-358,634)"/>
<path style="fill-rule:evenodd;fill:rgb(41.2%,83.5%,79.6%);fill-opacity:1;stroke-width:2;stroke-linecap:butt;stroke-linejoin:round;stroke:rgb(23.9%,16.9%,23.9%);stroke-opacity:1;stroke-miterlimit:10;" d="M 568 568 C 568 572.417969 564.417969 576 560 576 C 555.582031 576 552 572.417969 552 568 C 552 563.582031 555.582031 560 560 560 C 564.417969 560 568 563.582031 568 568 Z M 568 568 " transform="matrix(1,0,0,-1,-358,634)"/>
<path style="fill-rule:evenodd;fill:rgb(41.2%,83.5%,79.6%);fill-opacity:1;stroke-width:2;stroke-linecap:butt;stroke-linejoin:round;stroke:rgb(23.9%,16.9%,23.9%);stroke-opacity:1;stroke-miterlimit:10;" d="M 544 536 C 544 540.417969 540.417969 544 536 544 C 531.582031 544 528 540.417969 528 536 C 528 531.582031 531.582031 528 536 528 C 540.417969 528 544 531.582031 544 536 Z M 544 536 " transform="matrix(1,0,0,-1,-358,634)"/>
<path style="fill:none;stroke-width:1.2;stroke-linecap:butt;stroke-linejoin:round;stroke:rgb(23.9%,16.9%,23.9%);stroke-opacity:1;stroke-miterlimit:10;" d="M 424 480 L 424 536 L 448 568 L 504 568 L 504 512 L 480 480 L 424 480 L 448 512 L 504 512 L 480 480 L 480 536 L 424 536 L 424 480 L 448 512 L 448 568 L 504 568 L 480 536 " transform="matrix(1,0,0,-1,-358,634)"/>
<path style="fill-rule:evenodd;fill:rgb(41.2%,83.5%,79.6%);fill-opacity:1;stroke-width:2;stroke-linecap:butt;stroke-linejoin:round;stroke:rgb(23.9%,16.9%,23.9%);stroke-opacity:1;stroke-miterlimit:10;" d="M 456 568 C 456 572.417969 452.417969 576 448 576 C 443.582031 576 440 572.417969 440 568 C 440 563.582031 443.582031 560 448 560 C 452.417969 560 456 563.582031 456 568 Z M 456 568 " transform="matrix(1,0,0,-1,-358,634)"/>
<path style="fill-rule:evenodd;fill:rgb(41.2%,83.5%,79.6%);fill-opacity:1;stroke-width:2;stroke-linecap:butt;stroke-linejoin:round;stroke:rgb(23.9%,16.9%,23.9%);stroke-opacity:1;stroke-miterlimit:10;" d="M 456 512 C 456 516.417969 452.417969 520 448 520 C 443.582031 520 440 516.417969 440 512 C 440 507.582031 443.582031 504 448 504 C 452.417969 504 456 507.582031 456 512 Z M 456 512 " transform="matrix(1,0,0,-1,-358,634)"/>
<path style="fill-rule:evenodd;fill:rgb(41.2%,83.5%,79.6%);fill-opacity:1;stroke-width:2;stroke-linecap:butt;stroke-linejoin:round;stroke:rgb(23.9%,16.9%,23.9%);stroke-opacity:1;stroke-miterlimit:10;" d="M 472 524 C 472 528.417969 468.417969 532 464 532 C 459.582031 532 456 528.417969 456 524 C 456 519.582031 459.582031 516 464 516 C 468.417969 516 472 519.582031 472 524 Z M 472 524 " transform="matrix(1,0,0,-1,-358,634)"/>
<path style="fill-rule:evenodd;fill:rgb(41.2%,83.5%,79.6%);fill-opacity:1;stroke-width:2;stroke-linecap:butt;stroke-linejoin:round;stroke:rgb(23.9%,16.9%,23.9%);stroke-opacity:1;stroke-miterlimit:10;" d="M 432 480 C 432 484.417969 428.417969 488 424 488 C 419.582031 488 416 484.417969 416 480 C 416 475.582031 419.582031 472 424 472 C 428.417969 472 432 475.582031 432 480 Z M 432 480 " transform="matrix(1,0,0,-1,-358,634)"/>
<path style="fill-rule:evenodd;fill:rgb(41.2%,83.5%,79.6%);fill-opacity:1;stroke-width:2;stroke-linecap:butt;stroke-linejoin:round;stroke:rgb(23.9%,16.9%,23.9%);stroke-opacity:1;stroke-miterlimit:10;" d="M 488 480 C 488 484.417969 484.417969 488 480 488 C 475.582031 488 472 484.417969 472 480 C 472 475.582031 475.582031 472 480 472 C 484.417969 472 488 475.582031 488 480 Z M 488 480 " transform="matrix(1,0,0,-1,-358,634)"/>
<path style="fill-rule:evenodd;fill:rgb(41.2%,83.5%,79.6%);fill-opacity:1;stroke-width:2;stroke-linecap:butt;stroke-linejoin:round;stroke:rgb(23.9%,16.9%,23.9%);stroke-opacity:1;stroke-miterlimit:10;" d="M 512 512 C 512 516.417969 508.417969 520 504 520 C 499.582031 520 496 516.417969 496 512 C 496 507.582031 499.582031 504 504 504 C 508.417969 504 512 507.582031 512 512 Z M 512 512 " transform="matrix(1,0,0,-1,-358,634)"/>
<path style="fill-rule:evenodd;fill:rgb(41.2%,83.5%,79.6%);fill-opacity:1;stroke-width:2;stroke-linecap:butt;stroke-linejoin:round;stroke:rgb(23.9%,16.9%,23.9%);stroke-opacity:1;stroke-miterlimit:10;" d="M 432 536 C 432 540.417969 428.417969 544 424 544 C 419.582031 544 416 540.417969 416 536 C 416 531.582031 419.582031 528 424 528 C 428.417969 528 432 531.582031 432 536 Z M 432 536 " transform="matrix(1,0,0,-1,-358,634)"/>
<path style="fill-rule:evenodd;fill:rgb(41.2%,83.5%,79.6%);fill-opacity:1;stroke-width:2;stroke-linecap:butt;stroke-linejoin:round;stroke:rgb(23.9%,16.9%,23.9%);stroke-opacity:1;stroke-miterlimit:10;" d="M 512 568 C 512 572.417969 508.417969 576 504 576 C 499.582031 576 496 572.417969 496 568 C 496 563.582031 499.582031 560 504 560 C 508.417969 560 512 563.582031 512 568 Z M 512 568 " transform="matrix(1,0,0,-1,-358,634)"/>
<path style="fill-rule:evenodd;fill:rgb(41.2%,83.5%,79.6%);fill-opacity:1;stroke-width:2;stroke-linecap:butt;stroke-linejoin:round;stroke:rgb(23.9%,16.9%,23.9%);stroke-opacity:1;stroke-miterlimit:10;" d="M 488 536 C 488 540.417969 484.417969 544 480 544 C 475.582031 544 472 540.417969 472 536 C 472 531.582031 475.582031 528 480 528 C 484.417969 528 488 531.582031 488 536 Z M 488 536 " transform="matrix(1,0,0,-1,-358,634)"/>
<path style="fill:none;stroke-width:1.2;stroke-linecap:butt;stroke-linejoin:round;stroke:rgb(23.9%,16.9%,23.9%);stroke-opacity:1;stroke-miterlimit:10;" d="M 368 480 L 368 536 L 392 568 L 448 568 L 448 512 L 424 480 L 368 480 L 392 512 L 448 512 L 424 480 L 424 536 L 368 536 L 368 480 L 392 512 L 392 568 L 448 568 L 424 536 " transform="matrix(1,0,0,-1,-358,634)"/>
<path style="fill-rule:evenodd;fill:rgb(41.2%,83.5%,79.6%);fill-opacity:1;stroke-width:2;stroke-linecap:butt;stroke-linejoin:round;stroke:rgb(23.9%,16.9%,23.9%);stroke-opacity:1;stroke-miterlimit:10;" d="M 400 568 C 400 572.417969 396.417969 576 392 576 C 387.582031 576 384 572.417969 384 568 C 384 563.582031 387.582031 560 392 560 C 396.417969 560 400 563.582031 400 568 Z M 400 568 " transform="matrix(1,0,0,-1,-358,634)"/>
<path style="fill-rule:evenodd;fill:rgb(41.2%,83.5%,79.6%);fill-opacity:1;stroke-width:2;stroke-linecap:butt;stroke-linejoin:round;stroke:rgb(23.9%,16.9%,23.9%);stroke-opacity:1;stroke-miterlimit:10;" d="M 400 512 C 400 516.417969 396.417969 520 392 520 C 387.582031 520 384 516.417969 384 512 C 384 507.582031 387.582031 504 392 504 C 396.417969 504 400 507.582031 400 512 Z M 400 512 " transform="matrix(1,0,0,-1,-358,634)"/>
<path style="fill-rule:evenodd;fill:rgb(41.2%,83.5%,79.6%);fill-opacity:1;stroke-width:2;stroke-linecap:butt;stroke-linejoin:round;stroke:rgb(23.9%,16.9%,23.9%);stroke-opacity:1;stroke-miterlimit:10;" d="M 416 524 C 416 528.417969 412.417969 532 408 532 C 403.582031 532 400 528.417969 400 524 C 400 519.582031 403.582031 516 408 516 C 412.417969 516 416 519.582031 416 524 Z M 416 524 " transform="matrix(1,0,0,-1,-358,634)"/>
<path style="fill-rule:evenodd;fill:rgb(41.2%,83.5%,79.6%);fill-opacity:1;stroke-width:2;stroke-linecap:butt;stroke-linejoin:round;stroke:rgb(23.9%,16.9%,23.9%);stroke-opacity:1;stroke-miterlimit:10;" d="M 376 480 C 376 484.417969 372.417969 488 368 488 C 363.582031 488 360 484.417969 360 480 C 360 475.582031 363.582031 472 368 472 C 372.417969 472 376 475.582031 376 480 Z M 376 480 " transform="matrix(1,0,0,-1,-358,634)"/>
<path style="fill-rule:evenodd;fill:rgb(41.2%,83.5%,79.6%);fill-opacity:1;stroke-width:2;stroke-linecap:butt;stroke-linejoin:round;stroke:rgb(23.9%,16.9%,23.9%);stroke-opacity:1;stroke-miterlimit:10;" d="M 432 480 C 432 484.417969 428.417969 488 424 488 C 419.582031 488 416 484.417969 416 480 C 416 475.582031 419.582031 472 424 472 C 428.417969 472 432 475.582031 432 480 Z M 432 480 " transform="matrix(1,0,0,-1,-358,634)"/>
<path style="fill-rule:evenodd;fill:rgb(41.2%,83.5%,79.6%);fill-opacity:1;stroke-width:2;stroke-linecap:butt;stroke-linejoin:round;stroke:rgb(23.9%,16.9%,23.9%);stroke-opacity:1;stroke-miterlimit:10;" d="M 456 512 C 456 516.417969 452.417969 520 448 520 C 443.582031 520 440 516.417969 440 512 C 440 507.582031 443.582031 504 448 504 C 452.417969 504 456 507.582031 456 512 Z M 456 512 " transform="matrix(1,0,0,-1,-358,634)"/>
<path style="fill-rule:evenodd;fill:rgb(41.2%,83.5%,79.6%);fill-opacity:1;stroke-width:2;stroke-linecap:butt;stroke-linejoin:round;stroke:rgb(23.9%,16.9%,23.9%);stroke-opacity:1;stroke-miterlimit:10;" d="M 376 536 C 376 540.417969 372.417969 544 368 544 C 363.582031 544 360 540.417969 360 536 C 360 531.582031 363.582031 528 368 528 C 372.417969 528 376 531.582031 376 536 Z M 376 536 " transform="matrix(1,0,0,-1,-358,634)"/>
<path style="fill-rule:evenodd;fill:rgb(41.2%,83.5%,79.6%);fill-opacity:1;stroke-width:2;stroke-linecap:butt;stroke-linejoin:round;stroke:rgb(23.9%,16.9%,23.9%);stroke-opacity:1;stroke-miterlimit:10;" d="M 456 568 C 456 572.417969 452.417969 576 448 576 C 443.582031 576 440 572.417969 440 568 C 440 563.582031 443.582031 560 448 560 C 452.417969 560 456 563.582031 456 568 Z M 456 568 " transform="matrix(1,0,0,-1,-358,634)"/>
<path style="fill-rule:evenodd;fill:rgb(41.2%,83.5%,79.6%);fill-opacity:1;stroke-width:2;stroke-linecap:butt;stroke-linejoin:round;stroke:rgb(23.9%,16.9%,23.9%);stroke-opacity:1;stroke-miterlimit:10;" d="M 432 536 C 432 540.417969 428.417969 544 424 544 C 419.582031 544 416 540.417969 416 536 C 416 531.582031 419.582031 528 424 528 C 428.417969 528 432 531.582031 432 536 Z M 432 536 " transform="matrix(1,0,0,-1,-358,634)"/>
<path style="fill:none;stroke-width:1.2;stroke-linecap:butt;stroke-linejoin:round;stroke:rgb(23.9%,16.9%,23.9%);stroke-opacity:1;stroke-miterlimit:10;" d="M 480 536 L 480 592 L 504 624 L 560 624 L 560 568 L 536 536 L 480 536 L 504 568 L 560 568 L 536 536 L 536 592 L 480 592 L 480 536 L 504 568 L 504 624 L 560 624 L 536 592 " transform="matrix(1,0,0,-1,-358,634)"/>
<path style="fill-rule:evenodd;fill:rgb(41.2%,83.5%,79.6%);fill-opacity:1;stroke-width:2;stroke-linecap:butt;stroke-linejoin:round;stroke:rgb(23.9%,16.9%,23.9%);stroke-opacity:1;stroke-miterlimit:10;" d="M 512 624 C 512 628.417969 508.417969 632 504 632 C 499.582031 632 496 628.417969 496 624 C 496 619.582031 499.582031 616 504 616 C 508.417969 616 512 619.582031 512 624 Z M 512 624 " transform="matrix(1,0,0,-1,-358,634)"/>
<path style="fill-rule:evenodd;fill:rgb(41.2%,83.5%,79.6%);fill-opacity:1;stroke-width:2;stroke-linecap:butt;stroke-linejoin:round;stroke:rgb(23.9%,16.9%,23.9%);stroke-opacity:1;stroke-miterlimit:10;" d="M 512 568 C 512 572.417969 508.417969 576 504 576 C 499.582031 576 496 572.417969 496 568 C 496 563.582031 499.582031 560 504 560 C 508.417969 560 512 563.582031 512 568 Z M 512 568 " transform="matrix(1,0,0,-1,-358,634)"/>
<path style="fill-rule:evenodd;fill:rgb(41.2%,83.5%,79.6%);fill-opacity:1;stroke-width:2;stroke-linecap:butt;stroke-linejoin:round;stroke:rgb(23.9%,16.9%,23.9%);stroke-opacity:1;stroke-miterlimit:10;" d="M 528 580 C 528 584.417969 524.417969 588 520 588 C 515.582031 588 512 584.417969 512 580 C 512 575.582031 515.582031 572 520 572 C 524.417969 572 528 575.582031 528 580 Z M 528 580 " transform="matrix(1,0,0,-1,-358,634)"/>
<path style="fill-rule:evenodd;fill:rgb(41.2%,83.5%,79.6%);fill-opacity:1;stroke-width:2;stroke-linecap:butt;stroke-linejoin:round;stroke:rgb(23.9%,16.9%,23.9%);stroke-opacity:1;stroke-miterlimit:10;" d="M 488 536 C 488 540.417969 484.417969 544 480 544 C 475.582031 544 472 540.417969 472 536 C 472 531.582031 475.582031 528 480 528 C 484.417969 528 488 531.582031 488 536 Z M 488 536 " transform="matrix(1,0,0,-1,-358,634)"/>
<path style="fill-rule:evenodd;fill:rgb(41.2%,83.5%,79.6%);fill-opacity:1;stroke-width:2;stroke-linecap:butt;stroke-linejoin:round;stroke:rgb(23.9%,16.9%,23.9%);stroke-opacity:1;stroke-miterlimit:10;" d="M 544 536 C 544 540.417969 540.417969 544 536 544 C 531.582031 544 528 540.417969 528 536 C 528 531.582031 531.582031 528 536 528 C 540.417969 528 544 531.582031 544 536 Z M 544 536 " transform="matrix(1,0,0,-1,-358,634)"/>
<path style="fill-rule:evenodd;fill:rgb(41.2%,83.5%,79.6%);fill-opacity:1;stroke-width:2;stroke-linecap:butt;stroke-linejoin:round;stroke:rgb(23.9%,16.9%,23.9%);stroke-opacity:1;stroke-miterlimit:10;" d="M 568 568 C 568 572.417969 564.417969 576 560 576 C 555.582031 576 552 572.417969 552 568 C 552 563.582031 555.582031 560 560 560 C 564.417969 560 568 563.582031 568 568 Z M 568 568 " transform="matrix(1,0,0,-1,-358,634)"/>
<path style="fill-rule:evenodd;fill:rgb(41.2%,83.5%,79.6%);fill-opacity:1;stroke-width:2;stroke-linecap:butt;stroke-linejoin:round;stroke:rgb(23.9%,16.9%,23.9%);stroke-opacity:1;stroke-miterlimit:10;" d="M 488 592 C 488 596.417969 484.417969 600 480 600 C 475.582031 600 472 596.417969 472 592 C 472 587.582031 475.582031 584 480 584 C 484.417969 584 488 587.582031 488 592 Z M 488 592 " transform="matrix(1,0,0,-1,-358,634)"/>
<path style="fill-rule:evenodd;fill:rgb(41.2%,83.5%,79.6%);fill-opacity:1;stroke-width:2;stroke-linecap:butt;stroke-linejoin:round;stroke:rgb(23.9%,16.9%,23.9%);stroke-opacity:1;stroke-miterlimit:10;" d="M 568 624 C 568 628.417969 564.417969 632 560 632 C 555.582031 632 552 628.417969 552 624 C 552 619.582031 555.582031 616 560 616 C 564.417969 616 568 619.582031 568 624 Z M 568 624 " transform="matrix(1,0,0,-1,-358,634)"/>
<path style="fill-rule:evenodd;fill:rgb(41.2%,83.5%,79.6%);fill-opacity:1;stroke-width:2;stroke-linecap:butt;stroke-linejoin:round;stroke:rgb(23.9%,16.9%,23.9%);stroke-opacity:1;stroke-miterlimit:10;" d="M 544 592 C 544 596.417969 540.417969 600 536 600 C 531.582031 600 528 596.417969 528 592 C 528 587.582031 531.582031 584 536 584 C 540.417969 584 544 587.582031 544 592 Z M 544 592 " transform="matrix(1,0,0,-1,-358,634)"/>
<path style="fill:none;stroke-width:1.2;stroke-linecap:butt;stroke-linejoin:round;stroke:rgb(23.9%,16.9%,23.9%);stroke-opacity:1;stroke-miterlimit:10;" d="M 424 536 L 424 592 L 448 624 L 504 624 L 504 568 L 480 536 L 424 536 L 448 568 L 504 568 L 480 536 L 480 592 L 424 592 L 424 536 L 448 568 L 448 624 L 504 624 L 480 592 " transform="matrix(1,0,0,-1,-358,634)"/>
<path style="fill-rule:evenodd;fill:rgb(41.2%,83.5%,79.6%);fill-opacity:1;stroke-width:2;stroke-linecap:butt;stroke-linejoin:round;stroke:rgb(23.9%,16.9%,23.9%);stroke-opacity:1;stroke-miterlimit:10;" d="M 456 624 C 456 628.417969 452.417969 632 448 632 C 443.582031 632 440 628.417969 440 624 C 440 619.582031 443.582031 616 448 616 C 452.417969 616 456 619.582031 456 624 Z M 456 624 " transform="matrix(1,0,0,-1,-358,634)"/>
<path style="fill-rule:evenodd;fill:rgb(41.2%,83.5%,79.6%);fill-opacity:1;stroke-width:2;stroke-linecap:butt;stroke-linejoin:round;stroke:rgb(23.9%,16.9%,23.9%);stroke-opacity:1;stroke-miterlimit:10;" d="M 456 568 C 456 572.417969 452.417969 576 448 576 C 443.582031 576 440 572.417969 440 568 C 440 563.582031 443.582031 560 448 560 C 452.417969 560 456 563.582031 456 568 Z M 456 568 " transform="matrix(1,0,0,-1,-358,634)"/>
<path style="fill-rule:evenodd;fill:rgb(41.2%,83.5%,79.6%);fill-opacity:1;stroke-width:2;stroke-linecap:butt;stroke-linejoin:round;stroke:rgb(23.9%,16.9%,23.9%);stroke-opacity:1;stroke-miterlimit:10;" d="M 472 580 C 472 584.417969 468.417969 588 464 588 C 459.582031 588 456 584.417969 456 580 C 456 575.582031 459.582031 572 464 572 C 468.417969 572 472 575.582031 472 580 Z M 472 580 " transform="matrix(1,0,0,-1,-358,634)"/>
<path style="fill-rule:evenodd;fill:rgb(41.2%,83.5%,79.6%);fill-opacity:1;stroke-width:2;stroke-linecap:butt;stroke-linejoin:round;stroke:rgb(23.9%,16.9%,23.9%);stroke-opacity:1;stroke-miterlimit:10;" d="M 432 536 C 432 540.417969 428.417969 544 424 544 C 419.582031 544 416 540.417969 416 536 C 416 531.582031 419.582031 528 424 528 C 428.417969 528 432 531.582031 432 536 Z M 432 536 " transform="matrix(1,0,0,-1,-358,634)"/>
<path style="fill-rule:evenodd;fill:rgb(41.2%,83.5%,79.6%);fill-opacity:1;stroke-width:2;stroke-linecap:butt;stroke-linejoin:round;stroke:rgb(23.9%,16.9%,23.9%);stroke-opacity:1;stroke-miterlimit:10;" d="M 488 536 C 488 540.417969 484.417969 544 480 544 C 475.582031 544 472 540.417969 472 536 C 472 531.582031 475.582031 528 480 528 C 484.417969 528 488 531.582031 488 536 Z M 488 536 " transform="matrix(1,0,0,-1,-358,634)"/>
<path style="fill-rule:evenodd;fill:rgb(41.2%,83.5%,79.6%);fill-opacity:1;stroke-width:2;stroke-linecap:butt;stroke-linejoin:round;stroke:rgb(23.9%,16.9%,23.9%);stroke-opacity:1;stroke-miterlimit:10;" d="M 512 568 C 512 572.417969 508.417969 576 504 576 C 499.582031 576 496 572.417969 496 568 C 496 563.582031 499.582031 560 504 560 C 508.417969 560 512 563.582031 512 568 Z M 512 568 " transform="matrix(1,0,0,-1,-358,634)"/>
<path style="fill-rule:evenodd;fill:rgb(41.2%,83.5%,79.6%);fill-opacity:1;stroke-width:2;stroke-linecap:butt;stroke-linejoin:round;stroke:rgb(23.9%,16.9%,23.9%);stroke-opacity:1;stroke-miterlimit:10;" d="M 432 592 C 432 596.417969 428.417969 600 424 600 C 419.582031 600 416 596.417969 416 592 C 416 587.582031 419.582031 584 424 584 C 428.417969 584 432 587.582031 432 592 Z M 432 592 " transform="matrix(1,0,0,-1,-358,634)"/>
<path style="fill-rule:evenodd;fill:rgb(41.2%,83.5%,79.6%);fill-opacity:1;stroke-width:2;stroke-linecap:butt;stroke-linejoin:round;stroke:rgb(23.9%,16.9%,23.9%);stroke-opacity:1;stroke-miterlimit:10;" d="M 512 624 C 512 628.417969 508.417969 632 504 632 C 499.582031 632 496 628.417969 496 624 C 496 619.582031 499.582031 616 504 616 C 508.417969 616 512 619.582031 512 624 Z M 512 624 " transform="matrix(1,0,0,-1,-358,634)"/>
<path style="fill-rule:evenodd;fill:rgb(41.2%,83.5%,79.6%);fill-opacity:1;stroke-width:2;stroke-linecap:butt;stroke-linejoin:round;stroke:rgb(23.9%,16.9%,23.9%);stroke-opacity:1;stroke-miterlimit:10;" d="M 488 592 C 488 596.417969 484.417969 600 480 600 C 475.582031 600 472 596.417969 472 592 C 472 587.582031 475.582031 584 480 584 C 484.417969 584 488 587.582031 488 592 Z M 488 592 " transform="matrix(1,0,0,-1,-358,634)"/>
<path style="fill:none;stroke-width:1.2;stroke-linecap:butt;stroke-linejoin:round;stroke:rgb(23.9%,16.9%,23.9%);stroke-opacity:1;stroke-miterlimit:10;" d="M 368 536 L 368 592 L 392 624 L 448 624 L 448 568 L 424 536 L 368 536 L 392 568 L 448 568 L 424 536 L 424 592 L 368 592 L 368 536 L 392 568 L 392 624 L 448 624 L 424 592 " transform="matrix(1,0,0,-1,-358,634)"/>
<path style="fill-rule:evenodd;fill:rgb(41.2%,83.5%,79.6%);fill-opacity:1;stroke-width:2;stroke-linecap:butt;stroke-linejoin:round;stroke:rgb(23.9%,16.9%,23.9%);stroke-opacity:1;stroke-miterlimit:10;" d="M 400 624 C 400 628.417969 396.417969 632 392 632 C 387.582031 632 384 628.417969 384 624 C 384 619.582031 387.582031 616 392 616 C 396.417969 616 400 619.582031 400 624 Z M 400 624 " transform="matrix(1,0,0,-1,-358,634)"/>
<path style="fill-rule:evenodd;fill:rgb(41.2%,83.5%,79.6%);fill-opacity:1;stroke-width:2;stroke-linecap:butt;stroke-linejoin:round;stroke:rgb(23.9%,16.9%,23.9%);stroke-opacity:1;stroke-miterlimit:10;" d="M 400 568 C 400 572.417969 396.417969 576 392 576 C 387.582031 576 384 572.417969 384 568 C 384 563.582031 387.582031 560 392 560 C 396.417969 560 400 563.582031 400 568 Z M 400 568 " transform="matrix(1,0,0,-1,-358,634)"/>
<path style="fill-rule:evenodd;fill:rgb(41.2%,83.5%,79.6%);fill-opacity:1;stroke-width:2;stroke-linecap:butt;stroke-linejoin:round;stroke:rgb(23.9%,16.9%,23.9%);stroke-opacity:1;stroke-miterlimit:10;" d="M 416 580 C 416 584.417969 412.417969 588 408 588 C 403.582031 588 400 584.417969 400 580 C 400 575.582031 403.582031 572 408 572 C 412.417969 572 416 575.582031 416 580 Z M 416 580 " transform="matrix(1,0,0,-1,-358,634)"/>
<path style="fill-rule:evenodd;fill:rgb(41.2%,83.5%,79.6%);fill-opacity:1;stroke-width:2;stroke-linecap:butt;stroke-linejoin:round;stroke:rgb(23.9%,16.9%,23.9%);stroke-opacity:1;stroke-miterlimit:10;" d="M 376 536 C 376 540.417969 372.417969 544 368 544 C 363.582031 544 360 540.417969 360 536 C 360 531.582031 363.582031 528 368 528 C 372.417969 528 376 531.582031 376 536 Z M 376 536 " transform="matrix(1,0,0,-1,-358,634)"/>
<path style="fill-rule:evenodd;fill:rgb(41.2%,83.5%,79.6%);fill-opacity:1;stroke-width:2;stroke-linecap:butt;stroke-linejoin:round;stroke:rgb(23.9%,16.9%,23.9%);stroke-opacity:1;stroke-miterlimit:10;" d="M 432 536 C 432 540.417969 428.417969 544 424 544 C 419.582031 544 416 540.417969 416 536 C 416 531.582031 419.582031 528 424 528 C 428.417969 528 432 531.582031 432 536 Z M 432 536 " transform="matrix(1,0,0,-1,-358,634)"/>
<path style="fill-rule:evenodd;fill:rgb(41.2%,83.5%,79.6%);fill-opacity:1;stroke-width:2;stroke-linecap:butt;stroke-linejoin:round;stroke:rgb(23.9%,16.9%,23.9%);stroke-opacity:1;stroke-miterlimit:10;" d="M 456 568 C 456 572.417969 452.417969 576 448 576 C 443.582031 576 440 572.417969 440 568 C 440 563.582031 443.582031 560 448 560 C 452.417969 560 456 563.582031 456 568 Z M 456 568 " transform="matrix(1,0,0,-1,-358,634)"/>
<path style="fill-rule:evenodd;fill:rgb(41.2%,83.5%,79.6%);fill-opacity:1;stroke-width:2;stroke-linecap:butt;stroke-linejoin:round;stroke:rgb(23.9%,16.9%,23.9%);stroke-opacity:1;stroke-miterlimit:10;" d="M 376 592 C 376 596.417969 372.417969 600 368 600 C 363.582031 600 360 596.417969 360 592 C 360 587.582031 363.582031 584 368 584 C 372.417969 584 376 587.582031 376 592 Z M 376 592 " transform="matrix(1,0,0,-1,-358,634)"/>
<path style="fill-rule:evenodd;fill:rgb(41.2%,83.5%,79.6%);fill-opacity:1;stroke-width:2;stroke-linecap:butt;stroke-linejoin:round;stroke:rgb(23.9%,16.9%,23.9%);stroke-opacity:1;stroke-miterlimit:10;" d="M 456 624 C 456 628.417969 452.417969 632 448 632 C 443.582031 632 440 628.417969 440 624 C 440 619.582031 443.582031 616 448 616 C 452.417969 616 456 619.582031 456 624 Z M 456 624 " transform="matrix(1,0,0,-1,-358,634)"/>
<path style="fill-rule:evenodd;fill:rgb(41.2%,83.5%,79.6%);fill-opacity:1;stroke-width:2;stroke-linecap:butt;stroke-linejoin:round;stroke:rgb(23.9%,16.9%,23.9%);stroke-opacity:1;stroke-miterlimit:10;" d="M 432 592 C 432 596.417969 428.417969 600 424 600 C 419.582031 600 416 596.417969 416 592 C 416 587.582031 419.582031 584 424 584 C 428.417969 584 432 587.582031 432 592 Z M 432 592 " transform="matrix(1,0,0,-1,-358,634)"/>
<path style="fill-rule:evenodd;fill:rgb(76.5%,18.4%,15.3%);fill-opacity:1;stroke-width:2;stroke-linecap:butt;stroke-linejoin:round;stroke:rgb(23.9%,16.9%,23.9%);stroke-opacity:1;stroke-miterlimit:10;" d="M 473.65625 608 C 473.65625 611.125 471.125 613.65625 468 613.65625 C 464.875 613.65625 462.34375 611.125 462.34375 608 C 462.34375 604.875 464.875 602.34375 468 602.34375 C 471.125 602.34375 473.65625 604.875 473.65625 608 Z M 473.65625 608 " transform="matrix(1,0,0,-1,-358,634)"/>
<path style="fill-rule:evenodd;fill:rgb(76.5%,18.4%,15.3%);fill-opacity:1;stroke-width:2;stroke-linecap:butt;stroke-linejoin:round;stroke:rgb(23.9%,16.9%,23.9%);stroke-opacity:1;stroke-miterlimit:10;" d="M 409.65625 548 C 409.65625 551.125 407.125 553.65625 404 553.65625 C 400.875 553.65625 398.34375 551.125 398.34375 548 C 398.34375 544.875 400.875 542.34375 404 542.34375 C 407.125 542.34375 409.65625 544.875 409.65625 548 Z M 409.65625 548 " transform="matrix(1,0,0,-1,-358,634)"/>
<path style="fill-rule:evenodd;fill:rgb(76.5%,18.4%,15.3%);fill-opacity:1;stroke-width:2;stroke-linecap:butt;stroke-linejoin:round;stroke:rgb(23.9%,16.9%,23.9%);stroke-opacity:1;stroke-miterlimit:10;" d="M 529.65625 556 C 529.65625 559.125 527.125 561.65625 524 561.65625 C 520.875 561.65625 518.34375 559.125 518.34375 556 C 518.34375 552.875 520.875 550.34375 524 550.34375 C 527.125 550.34375 529.65625 552.875 529.65625 556 Z M 529.65625 556 " transform="matrix(1,0,0,-1,-358,634)"/>
<path style="fill-rule:evenodd;fill:rgb(76.5%,18.4%,15.3%);fill-opacity:1;stroke-width:2;stroke-linecap:butt;stroke-linejoin:round;stroke:rgb(23.9%,16.9%,23.9%);stroke-opacity:1;stroke-miterlimit:10;" d="M 473.65625 492 C 473.65625 495.125 471.125 497.65625 468 497.65625 C 464.875 497.65625 462.34375 495.125 462.34375 492 C 462.34375 488.875 464.875 486.34375 468 486.34375 C 471.125 486.34375 473.65625 488.875 473.65625 492 Z M 473.65625 492 " transform="matrix(1,0,0,-1,-358,634)"/>
<path style="fill-rule:evenodd;fill:rgb(76.5%,18.4%,15.3%);fill-opacity:1;stroke-width:2;stroke-linecap:butt;stroke-linejoin:round;stroke:rgb(23.9%,16.9%,23.9%);stroke-opacity:1;stroke-miterlimit:10;" d="M 413.65625 440 C 413.65625 443.125 411.125 445.65625 408 445.65625 C 404.875 445.65625 402.34375 443.125 402.34375 440 C 402.34375 436.875 404.875 434.34375 408 434.34375 C 411.125 434.34375 413.65625 436.875 413.65625 440 Z M 413.65625 440 " transform="matrix(1,0,0,-1,-358,634)"/>
</g>
</svg>
